<?xml version="1.0" encoding="utf-8"?>
<!-- Generator: Adobe Illustrator 21.0.0, SVG Export Plug-In . SVG Version: 6.00 Build 0)  -->
<svg version="1.1" id="Layer_4" xmlns="http://www.w3.org/2000/svg" xmlns:xlink="http://www.w3.org/1999/xlink" x="0px" y="0px"
	 viewBox="0 0 536.9 128" style="enable-background:new 0 0 536.9 128;" xml:space="preserve">
<style type="text/css">
	.st0{fill:none;}
	.st1{fill:#FFC107;}
	.st2{fill:#0F9D58;}
	.st3{opacity:0.2;fill:#BF360C;enable-background:new    ;}
	.st4{opacity:0.2;fill:#263238;enable-background:new    ;}
	.st5{opacity:0.2;fill:#FFFFFF;enable-background:new    ;}
	.st6{fill:url(#XMLID_7_);}
	.st7{fill:url(#XMLID_34_);}
	.st8{fill:#4285F4;}
	.st9{fill:#DB4437;}
	.st10{opacity:0.2;fill:#1A237E;enable-background:new    ;}
	.st11{opacity:0.2;fill:#3E2723;enable-background:new    ;}
	.st12{fill:url(#XMLID_35_);}
	.st13{fill:#FFFFFF;}
</style>
<g id="Layer_2">
</g>
<g id="XMLID_2_">
	<g id="XMLID_3_">
		<g id="XMLID_4_">
			<path id="XMLID_33_" class="st0" d="M78.7,58L45.1,0H0.3l37,64l-37,64h44.8l33.5-58C80.8,66.3,80.8,61.7,78.7,58z"/>
			<path id="XMLID_32_" class="st1" d="M59.4,102.3L48.8,83.9L23.3,128h21.8l14.6-25.2L59.4,102.3z"/>
			<path id="XMLID_31_" class="st0" d="M78.7,58L45.1,0H0.3l37,64l-37,64h44.8l33.5-58C80.8,66.3,80.8,61.7,78.7,58z"/>
			<path id="XMLID_30_" class="st2" d="M37.3,64l11.5,19.9L23.3,128h-23L37.3,64z"/>
			<path id="XMLID_29_" class="st0" d="M78.7,58L45.1,0H0.3l37,64l-37,64h44.8l33.5-58C80.8,66.3,80.8,61.7,78.7,58z"/>
			<path id="XMLID_28_" class="st3" d="M45.1,127H23.8l-0.5,1h21.8l14.6-25.2l-0.3-0.5L45.1,127z"/>
			<path id="XMLID_27_" class="st0" d="M78.7,58L45.1,0H0.3l37,64l-37,64h44.8l33.5-58C80.8,66.3,80.8,61.7,78.7,58z"/>
			<path id="XMLID_26_" class="st4" d="M0.8,127l-0.5,1h23l0.5-1H0.8z"/>
			<path id="XMLID_25_" class="st0" d="M78.7,58L45.1,0H0.3l37,64l-37,64h44.8l33.5-58C80.8,66.3,80.8,61.7,78.7,58z"/>
			<path id="XMLID_24_" class="st5" d="M0.3,128h0.5l36.8-63.5L37.3,64L0.3,128z"/>
			<path id="XMLID_23_" class="st0" d="M78.7,58L45.1,0H0.3l37,64l-37,64h44.8l33.5-58C80.8,66.3,80.8,61.7,78.7,58z"/>
			
				<radialGradient id="XMLID_7_" cx="59.537" cy="764.374" r="44.264" gradientTransform="matrix(1 0 0 1 0 -662)" gradientUnits="userSpaceOnUse">
				<stop  offset="0" style="stop-color:#BF360C;stop-opacity:0.2"/>
				<stop  offset="1" style="stop-color:#BF360C;stop-opacity:2.000000e-02"/>
			</radialGradient>
			<path id="XMLID_22_" class="st6" d="M59.7,102.8L48.8,83.9l-2.7,4.6L59.7,102.8z"/>
			<path id="XMLID_21_" class="st0" d="M78.7,58L45.1,0H0.3l37,64l-37,64h44.8l33.5-58C80.8,66.3,80.8,61.7,78.7,58z"/>
			
				<radialGradient id="XMLID_34_" cx="59.411" cy="764.654" r="44.623" gradientTransform="matrix(1 0 0 1 0 -662)" gradientUnits="userSpaceOnUse">
				<stop  offset="0" style="stop-color:#263238;stop-opacity:0.2"/>
				<stop  offset="1" style="stop-color:#263238;stop-opacity:2.000000e-02"/>
			</radialGradient>
			<path id="XMLID_20_" class="st7" d="M46.1,88.5l2.7-4.6L37.3,64l-5.5,9.5L46.1,88.5z"/>
			<path id="XMLID_19_" class="st0" d="M78.7,58L45.1,0H0.3l37,64l-37,64h44.8l33.5-58C80.8,66.3,80.8,61.7,78.7,58z"/>
			<g id="XMLID_16_">
				<g id="XMLID_17_">
					<path id="XMLID_18_" class="st8" d="M23.3,0h-23l59.4,102.8l11.5-19.9L23.3,0z"/>
				</g>
			</g>
			<path id="XMLID_15_" class="st0" d="M78.7,58L45.1,0H0.3l37,64l-37,64h44.8l33.5-58C80.8,66.3,80.8,61.7,78.7,58z"/>
			<path id="XMLID_14_" class="st9" d="M78.7,70c2.1-3.7,2.1-8.3,0-12L45.1,0H23.3l47.9,82.9L78.7,70z"/>
			<path id="XMLID_13_" class="st0" d="M78.7,58L45.1,0H0.3l37,64l-37,64h44.8l33.5-58C80.8,66.3,80.8,61.7,78.7,58z"/>
			<path id="XMLID_12_" class="st10" d="M71.2,82.9l-0.3-0.5l-11.2,19.4L0.8,0H0.3l59.4,102.8L71.2,82.9z"/>
			<path id="XMLID_11_" class="st0" d="M78.7,58L45.1,0H0.3l37,64l-37,64h44.8l33.5-58C80.8,66.3,80.8,61.7,78.7,58z"/>
			<path id="XMLID_10_" class="st5" d="M45.1,1l33.5,58c1,1.7,1.5,3.6,1.6,5.5c0.1-2.2-0.4-4.5-1.6-6.5L45.1,0H0.3l0.6,1
				C0.9,1,45.1,1,45.1,1z"/>
			<path id="XMLID_9_" class="st0" d="M78.7,58L45.1,0H0.3l37,64l-37,64h44.8l33.5-58C80.8,66.3,80.8,61.7,78.7,58z"/>
			<path id="XMLID_8_" class="st11" d="M71.2,82.9L78.7,70c1.2-2,1.7-4.3,1.6-6.5c-0.1,1.9-0.6,3.8-1.6,5.5L71,82.4L71.2,82.9z"/>
			<path id="XMLID_6_" class="st0" d="M78.7,58L45.1,0H0.3l37,64l-37,64h44.8l33.5-58C80.8,66.3,80.8,61.7,78.7,58z"/>
			
				<radialGradient id="XMLID_35_" cx="-0.74" cy="663" r="134.35" gradientTransform="matrix(1 0 0 1 0 -662)" gradientUnits="userSpaceOnUse">
				<stop  offset="0" style="stop-color:#FFFFFF;stop-opacity:0.1"/>
				<stop  offset="1" style="stop-color:#FFFFFF;stop-opacity:0"/>
			</radialGradient>
			<path id="XMLID_5_" class="st12" d="M78.7,58L45.1,0H0.3l37,64l-37,64h44.8l33.5-58C80.8,66.3,80.8,61.7,78.7,58z"/>
		</g>
	</g>
</g>
<g>
	<path class="st13" d="M146,33.8c0,7.2-2.1,12.9-6.4,17.2c-4.8,5.1-11.2,7.6-18.9,7.6c-7.4,0-13.8-2.6-19-7.7
		c-5.2-5.2-7.8-11.5-7.8-19.2s2.6-14,7.8-19.2c5.2-5.2,11.5-7.7,19-7.7c3.7,0,7.2,0.7,10.6,2.2c3.4,1.4,6,3.4,8.1,5.8l-4.5,4.5
		c-3.4-4.1-8.1-6.1-14.1-6.1c-5.4,0-10.1,1.9-14.1,5.7s-5.9,8.8-5.9,14.9c0,6.1,2,11,5.9,14.9s8.6,5.7,14.1,5.7
		c5.8,0,10.6-1.9,14.4-5.8c2.5-2.5,3.9-6,4.3-10.4h-18.7v-6.2h25C145.8,31.2,146,32.5,146,33.8z"/>
	<path class="st13" d="M154,57.5V5.9h15.8c7.9,0,14.2,2.4,19,7.2c4.7,4.8,7.1,11,7.1,18.6s-2.4,13.8-7.1,18.6
		c-4.7,4.8-11.1,7.2-19,7.2H154z M160.6,51.1h9.1c5.9,0,10.7-1.7,14.1-5.1c3.5-3.4,5.2-8.2,5.2-14.3c0-6.1-1.7-10.9-5.2-14.3
		c-3.5-3.4-8.2-5.1-14.1-5.1h-9.1V51.1z"/>
	<path class="st13" d="M253.3,33.8c0,7.2-2.1,12.9-6.4,17.2c-4.8,5.1-11.2,7.6-18.9,7.6c-7.4,0-13.8-2.6-19-7.7
		c-5.2-5.2-7.8-11.5-7.8-19.2s2.6-14,7.8-19.2c5.2-5.2,11.5-7.7,19-7.7c3.7,0,7.2,0.7,10.6,2.2c3.4,1.4,6,3.4,8.1,5.8l-4.5,4.5
		c-3.4-4.1-8.1-6.1-14.1-6.1c-5.4,0-10.1,1.9-14.1,5.7s-5.9,8.8-5.9,14.9c0,6.1,2,11,5.9,14.9s8.6,5.7,14.1,5.7
		c5.8,0,10.6-1.9,14.4-5.8c2.5-2.5,3.9-6,4.3-10.4H228v-6.2h25C253.2,31.2,253.3,32.5,253.3,33.8z"/>
	<path class="st13" d="M277.2,57.5V5.9H293c7.9,0,14.2,2.4,19,7.2c4.7,4.8,7.1,11,7.1,18.6s-2.4,13.8-7.1,18.6
		c-4.7,4.8-11.1,7.2-19,7.2H277.2z M283.8,51.1h9.1c5.9,0,10.7-1.7,14.1-5.1c3.5-3.4,5.2-8.2,5.2-14.3c0-6.1-1.7-10.9-5.2-14.3
		c-3.5-3.4-8.2-5.1-14.1-5.1h-9.1V51.1z"/>
	<path class="st13" d="M340.7,58.6c-5.3,0-9.7-1.8-13-5.3c-3.3-3.5-5-8-5-13.5c0-5.1,1.6-9.5,4.9-13.2c3.2-3.7,7.4-5.5,12.4-5.5
		c5.2,0,9.4,1.7,12.6,5.1c3.1,3.4,4.7,8,4.7,13.7l-0.1,1.2h-27.8c0.2,3.6,1.4,6.4,3.6,8.4c2.2,2.1,4.7,3.1,7.7,3.1c4.7,0,8-2,9.6-6
		l5.9,2.4c-1.2,2.7-3,5-5.7,6.9C347.7,57.7,344.5,58.6,340.7,58.6z M350.2,35.6c-0.1-2-1.1-3.9-2.8-5.8c-1.7-1.8-4.2-2.7-7.6-2.7
		c-2.4,0-4.6,0.8-6.4,2.3c-1.8,1.5-3,3.6-3.7,6.2H350.2z"/>
	<path class="st13" d="M373,57.5l-14.2-35.3h7.2l10.4,27.3h0.1L387,22.2h7.1l-14.4,35.3H373z"/>
	<path class="st13" d="M406.1,57.5h-6.6V5.9h30.1v6.3h-23.5v16.9h21.2v6.2h-21.2V57.5z"/>
	<path class="st13" d="M449.7,58.6c-5.3,0-9.7-1.8-13-5.3c-3.3-3.5-5-8-5-13.5c0-5.1,1.6-9.5,4.9-13.2c3.2-3.7,7.4-5.5,12.4-5.5
		c5.2,0,9.4,1.7,12.6,5.1c3.1,3.4,4.7,8,4.7,13.7l-0.1,1.2h-27.8c0.2,3.6,1.4,6.4,3.6,8.4c2.2,2.1,4.7,3.1,7.7,3.1c4.7,0,8-2,9.6-6
		l5.9,2.4c-1.2,2.7-3,5-5.7,6.9C456.8,57.7,453.6,58.6,449.7,58.6z M459.2,35.6c-0.1-2-1.1-3.9-2.8-5.8c-1.7-1.8-4.2-2.7-7.6-2.7
		c-2.4,0-4.6,0.8-6.4,2.3c-1.8,1.5-3,3.6-3.7,6.2H459.2z"/>
	<path class="st13" d="M485.8,58.6c-3.9,0-7.2-1-9.8-2.9c-2.6-1.9-4.4-4.3-5.6-7.2l5.9-2.4c1.9,4.4,5.1,6.6,9.6,6.6
		c2.1,0,3.8-0.5,5.1-1.4c1.3-0.9,2-2.1,2-3.6c0-2.3-1.6-3.9-4.8-4.7l-7.1-1.7c-2.3-0.6-4.4-1.7-6.4-3.3c-2-1.6-3-3.8-3-6.5
		c0-3.1,1.4-5.6,4.1-7.6c2.8-1.9,6-2.9,9.8-2.9c3.1,0,5.9,0.7,8.3,2.1c2.4,1.4,4.2,3.4,5.3,6.1l-5.8,2.4c-1.3-3.1-4-4.7-8.1-4.7
		c-2,0-3.6,0.4-5,1.2c-1.3,0.8-2,1.9-2,3.3c0,2,1.6,3.4,4.7,4.1l7,1.7c3.3,0.8,5.8,2.1,7.3,4s2.4,4,2.4,6.3c0,3.2-1.3,5.8-3.9,7.9
		S489.9,58.6,485.8,58.6z"/>
	<path class="st13" d="M520.3,58c-3.7,0-6.5-1-8.5-3c-1.9-2-2.9-4.7-2.9-8.3V28.2h-6.2v-6h6.2V11.4h6.6v10.8h8.6v6h-8.6v18
		c0,3.8,1.6,5.8,4.7,5.8c1.2,0,2.2-0.2,3-0.6l2.3,5.7C524.2,57.7,522.4,58,520.3,58z"/>
	<path class="st13" d="M110.9,123.9c-3.7,0-7.4-1.2-11-3.7c-3.6-2.4-5.9-5.9-7-10.3l6-2.4c0.7,2.8,2.2,5.2,4.4,7.2s4.7,2.9,7.5,2.9
		c2.9,0,5.3-0.8,7.4-2.3c2-1.5,3.1-3.6,3.1-6.2c0-2.9-1-5.1-3.1-6.7c-2-1.6-5.3-3-9.7-4.4c-4.6-1.4-8-3.3-10.4-5.6
		c-2.4-2.3-3.5-5.2-3.5-8.7c0-3.7,1.5-6.9,4.4-9.6c2.9-2.7,6.7-4.1,11.4-4.1c4.4,0,7.9,1.1,10.6,3.3c2.7,2.2,4.5,4.6,5.3,7.2l-6,2.5
		c-0.4-1.6-1.5-3.1-3.2-4.5c-1.7-1.4-3.9-2.1-6.6-2.1c-2.5,0-4.7,0.7-6.5,2.1c-1.8,1.4-2.7,3.2-2.7,5.3c0,1.9,0.8,3.5,2.5,4.9
		c1.7,1.3,4.1,2.5,7.3,3.6c2.5,0.8,4.7,1.6,6.4,2.4c1.7,0.8,3.4,1.8,5.2,3.1c1.8,1.3,3.1,2.9,4,4.7c0.9,1.9,1.3,4.1,1.3,6.6
		c0,2.5-0.5,4.7-1.5,6.7c-1,2-2.4,3.5-4.1,4.7c-1.7,1.2-3.5,2-5.5,2.6C115,123.6,113,123.9,110.9,123.9z"/>
	<path class="st13" d="M141.6,122.7H135V87.5h6.3v5.8h0.3c0.7-1.9,2.1-3.5,4.1-4.7c2.1-1.2,4.1-1.9,6.1-1.9c2,0,3.6,0.3,5,0.9
		l-2.5,6.2c-0.9-0.3-2-0.5-3.5-0.5c-2.4,0-4.5,0.9-6.4,2.8c-1.8,1.9-2.8,4.4-2.8,7.4V122.7z"/>
	<path class="st13" d="M168.3,78.6c-0.9,0.9-2,1.4-3.3,1.4c-1.3,0-2.4-0.5-3.3-1.4c-0.9-0.9-1.4-2-1.4-3.3c0-1.3,0.5-2.4,1.4-3.3
		c0.9-0.9,2-1.4,3.3-1.4c1.3,0,2.4,0.5,3.3,1.4c0.9,0.9,1.4,2,1.4,3.3C169.7,76.6,169.2,77.7,168.3,78.6z M168.3,122.7h-6.6V87.5
		h6.6V122.7z"/>
	<path class="st13" d="M193.9,122.7V71.2h6.6v45.2h22.3v6.3H193.9z"/>
	<path class="st13" d="M239.8,123.9c-3.7,0-6.9-1.1-9.4-3.2c-2.5-2.2-3.8-5-3.8-8.6c0-3.8,1.5-6.8,4.5-9c3-2.2,6.6-3.3,11-3.3
		c3.9,0,7.1,0.7,9.6,2.2v-1c0-2.6-0.9-4.7-2.7-6.2c-1.8-1.6-4-2.3-6.5-2.3c-1.9,0-3.7,0.5-5.2,1.4c-1.6,0.9-2.6,2.2-3.2,3.7l-6-2.6
		c0.8-2.1,2.4-4.1,4.8-5.9c2.4-1.8,5.6-2.7,9.5-2.7c4.5,0,8.3,1.3,11.2,4c3,2.6,4.5,6.4,4.5,11.2v21.3h-6.3v-4.9h-0.3
		C248.7,121.9,244.9,123.9,239.8,123.9z M240.9,117.9c2.7,0,5.2-1,7.4-3.1c2.2-2,3.3-4.4,3.3-7.2c-1.9-1.5-4.7-2.3-8.4-2.3
		c-3.2,0-5.6,0.7-7.3,2.1c-1.6,1.4-2.4,3-2.4,4.9c0,1.7,0.7,3.1,2.2,4.1C237.2,117.3,238.9,117.9,240.9,117.9z"/>
	<path class="st13" d="M271.8,87.5v4.9h0.3c1-1.7,2.5-3.1,4.5-4.3s4.3-1.8,6.6-1.8c4.4,0,7.7,1.3,10,4c2.3,2.7,3.5,6.3,3.5,10.8
		v21.6h-6.6v-20.6c0-6.5-2.9-9.8-8.7-9.8c-2.7,0-5,1.1-6.7,3.3c-1.7,2.2-2.6,4.7-2.6,7.6v19.5h-6.6V87.5H271.8z"/>
	<path class="st13" d="M311.1,71.2V103l15.3-15.5h8.5v0.3l-13.7,13.7l14.4,20.9v0.3h-8l-11.1-16.6l-5.3,5.3v11.3h-6.6V71.2H311.1z"
		/>
	<path class="st13" d="M349.6,123.9c-3.7,0-6.9-1.1-9.4-3.2c-2.5-2.2-3.8-5-3.8-8.6c0-3.8,1.5-6.8,4.5-9c3-2.2,6.6-3.3,11-3.3
		c3.9,0,7.1,0.7,9.6,2.2v-1c0-2.6-0.9-4.7-2.7-6.2c-1.8-1.6-4-2.3-6.5-2.3c-1.9,0-3.7,0.5-5.2,1.4c-1.6,0.9-2.6,2.2-3.2,3.7l-6-2.6
		c0.8-2.1,2.4-4.1,4.8-5.9s5.6-2.7,9.5-2.7c4.5,0,8.3,1.3,11.2,4c3,2.6,4.5,6.4,4.5,11.2v21.3h-6.3v-4.9h-0.3
		C358.6,121.9,354.7,123.9,349.6,123.9z M350.7,117.9c2.7,0,5.2-1,7.4-3.1c2.2-2,3.3-4.4,3.3-7.2c-1.9-1.5-4.7-2.3-8.4-2.3
		c-3.2,0-5.6,0.7-7.3,2.1c-1.6,1.4-2.4,3-2.4,4.9c0,1.7,0.7,3.1,2.2,4.1C347.1,117.3,348.8,117.9,350.7,117.9z"/>
	<path class="st13" d="M421.4,122.7H390v-6.6c9.4-9.5,15.4-15.6,18.1-18.5c2.3-2.6,3.9-4.6,4.7-6s1.2-3.1,1.2-5.1
		c0-2.1-0.8-3.9-2.4-5.5c-1.6-1.6-3.8-2.4-6.5-2.4c-2.5,0-4.5,0.7-6,2.2c-1.5,1.5-2.5,3-3,4.7l-6-2.4c0.8-2.6,2.5-5,5.1-7.3
		c2.6-2.3,5.9-3.5,10.1-3.5c4.6,0,8.3,1.4,11.2,4.2c2.9,2.8,4.4,6.1,4.4,10c0,4.8-2.6,9.9-7.8,15.4l-14.4,14.5h22.8V122.7z"/>
	<path class="st13" d="M461.8,116.5c-3.6,4.9-8.4,7.4-14.3,7.4c-5.9,0-10.7-2.5-14.3-7.4c-3.6-4.9-5.5-11.1-5.5-18.3
		c0-7.3,1.8-13.5,5.5-18.4s8.4-7.4,14.3-7.4c5.9,0,10.7,2.5,14.3,7.4c3.6,4.9,5.5,11,5.5,18.4C467.3,105.4,465.5,111.5,461.8,116.5z
		 M447.5,117.6c3.9,0,7.1-1.8,9.5-5.5c2.4-3.7,3.6-8.3,3.6-13.9c0-5.6-1.2-10.3-3.6-13.9c-2.4-3.7-5.5-5.5-9.5-5.5
		c-4,0-7.1,1.8-9.5,5.5c-2.4,3.7-3.5,8.3-3.5,13.9c0,5.6,1.2,10.2,3.5,13.9C440.3,115.7,443.5,117.6,447.5,117.6z"/>
	<path class="st13" d="M491.3,122.7h-6.6v-41l-9.6,4.2l-2.5-5.6l14.5-6.8h4.2V122.7z"/>
	<path class="st13" d="M528.8,119.7c-3.2,2.8-7.2,4.2-11.9,4.2c-4.7,0-8.7-1.4-11.9-4.2c-3.2-2.8-4.8-6.3-4.8-10.5
		c0-2.7,0.7-5.1,2.2-7.2c1.5-2.1,3.4-3.7,5.8-4.9v-0.3c-1.9-1.2-3.4-2.7-4.6-4.6c-1.2-1.8-1.8-3.8-1.8-5.8c0-4,1.4-7.3,4.2-10
		c2.8-2.7,6.4-4,10.8-4c4.4,0,8,1.3,10.8,4c2.8,2.7,4.2,6,4.2,10c0,2-0.6,3.9-1.8,5.8c-1.2,1.8-2.7,3.4-4.6,4.6V97
		c2.4,1.2,4.3,2.8,5.8,4.9c1.5,2.1,2.2,4.5,2.2,7.2C533.6,113.3,532,116.8,528.8,119.7z M509.9,115.1c1.9,1.6,4.3,2.4,7.1,2.4
		c2.8,0,5.1-0.8,7.1-2.4c1.9-1.6,2.9-3.7,2.9-6.3c0-2.5-1-4.6-2.9-6.3c-1.9-1.6-4.3-2.4-7.1-2.4c-2.8,0-5.1,0.8-7.1,2.4
		c-1.9,1.6-2.9,3.7-2.9,6.3C507,111.4,508,113.5,509.9,115.1z M511,91.8c1.6,1.4,3.5,2.1,5.9,2.1c2.4,0,4.4-0.7,5.9-2.1
		c1.6-1.4,2.3-3.3,2.3-5.6s-0.8-4.1-2.3-5.5c-1.6-1.3-3.5-2-5.9-2c-2.4,0-4.4,0.7-5.9,2c-1.6,1.3-2.3,3.2-2.3,5.5
		S509.4,90.4,511,91.8z"/>
</g>
</svg>
